<svg width="33" height="33" viewBox="0 0 33 33" fill="none" xmlns="http://www.w3.org/2000/svg">
<path d="M28.4064 9.46099C28.4051 10.8761 27.844 12.2331 26.8455 13.2359C25.8471 14.2386 24.4925 14.8056 23.0774 14.813H23.0174C20.756 14.8196 18.5893 15.7216 16.9913 17.3217C15.3933 18.9217 14.4941 21.0896 14.4904 23.351V23.413C14.491 24.4729 14.1773 25.5091 13.5888 26.3907C13.0004 27.2722 12.1637 27.9594 11.1847 28.3654C10.2056 28.7713 9.12816 28.8778 8.08859 28.6713C7.04901 28.4649 6.09403 27.9547 5.34444 27.2054C4.59485 26.4561 4.08433 25.5013 3.87746 24.4618C3.67059 23.4223 3.77668 22.3448 4.18227 21.3656C4.58787 20.3864 5.27478 19.5495 6.15609 18.9607C7.03741 18.3719 8.07353 18.0578 9.13342 18.058C11.4002 18.0593 13.5747 17.1607 15.1793 15.5595C16.7838 13.9584 17.687 11.7857 17.6904 9.519C17.6893 9.49935 17.6893 9.47964 17.6904 9.45999C17.6904 8.03856 18.2551 6.67536 19.2602 5.67026C20.2653 4.66516 21.6285 4.10049 23.0499 4.10049C24.4713 4.10049 25.8346 4.66516 26.8397 5.67026C27.8448 6.67536 28.4094 8.03856 28.4094 9.45999L28.4064 9.46099Z" fill="#4186FA"/>
<path d="M22.9907 28.764C25.9941 28.764 28.4287 26.3324 28.4287 23.333C28.4287 20.3335 25.9941 17.902 22.9907 17.902C19.9874 17.902 17.5527 20.3335 17.5527 23.333C17.5527 26.3324 19.9874 28.764 22.9907 28.764Z" fill="#4186FA"/>
</svg>
