<svg width="328" height="328" viewBox="0 0 328 328" fill="none" xmlns="http://www.w3.org/2000/svg">
<path fill-rule="evenodd" clip-rule="evenodd" d="M327.001 177.226C327.661 171.409 328 165.494 328 159.5C328 87.0386 278.437 26.1531 211.361 8.89551C212.496 9.18762 213.627 9.49219 214.752 9.80908L116.456 58.5142C110.068 62.2897 107.883 63.5817 108.006 64.5938C108.069 65.1204 108.758 65.571 109.805 66.2562C111.534 67.3241 134.017 80.4055 159.559 95.2222C185.233 110.039 207.849 123.654 209.844 125.657C214.233 129.928 233.789 163.032 236.716 171.175C238.978 177.849 239.643 220.831 237.381 226.571C236.317 229.507 238.712 228.439 255.739 218.428C266.515 212.154 278.488 205.213 282.346 203.077L327.001 177.226ZM131.009 171V139.267C131.009 121.933 131.275 107.667 131.676 107.667C132.875 107.667 198.209 145.267 200.742 147.533C202.075 148.6 205.542 153.8 208.476 159.133L213.809 168.867L213.408 186.467L213.009 204.2L207.408 207.933L201.809 211.667L166.476 191.4L131.009 171ZM130.608 225.933C129.542 254.467 129.408 285 130.209 285C131.542 285 203.142 242.867 203.408 241.8C203.676 240.867 134.342 199.667 132.209 199.667C131.809 199.667 131.009 211.4 130.608 225.933Z" fill="#A02063"/>
</svg>
