<svg width="145" height="145" viewBox="0 0 145 145" fill="none" xmlns="http://www.w3.org/2000/svg">
<circle cx="72.5" cy="72.5" r="72.5" fill="#202EB1"/>
<path d="M63.113 14.4385C34.848 16.9718 11.9244 38.1718 7.58455 65.7718C3.57849 91.5052 20.493 117.638 48.2015 128.438C55.7685 131.372 59.2182 131.905 71.0138 132.038C87.4832 132.172 93.4923 130.705 107.291 122.838C134.666 107.105 145.237 73.9052 131.105 47.5052C118.196 23.3718 93.9374 11.5052 63.113 14.4385ZM91.0441 19.1052C120.422 27.5052 139.339 57.1052 132.774 84.3052C121.09 132.572 54.2106 145.772 22.0509 106.038C19.6027 102.972 16.0418 96.7052 14.0388 91.9052C10.9229 84.3052 10.4778 81.9052 10.5891 72.8385C10.5891 59.6385 13.9275 50.4385 22.6073 39.6385C38.4089 19.7718 65.3386 11.6385 91.0441 19.1052Z" fill="white"/>
<path d="M55.7685 22.8385C38.6315 27.2385 22.6072 42.0385 17.7109 57.5052C14.3725 67.9052 14.8177 82.4385 18.6012 91.3719C26.3907 109.505 45.1969 122.705 66.8964 125.239C71.4589 125.772 72.1266 125.505 72.1266 123.372C72.1266 121.239 71.2363 120.839 66.7851 120.839C49.8707 120.839 30.0629 107.639 22.6072 91.3719C19.714 85.1052 19.2688 82.8385 19.2688 73.5052C19.2688 64.8385 19.8252 61.5052 22.0508 56.1719C25.8343 46.8385 34.069 37.6385 43.5278 32.3052C79.2484 11.9052 125.207 34.4385 125.652 72.5719C125.875 87.9052 116.861 103.772 103.062 112.705L98.1659 115.772L83.5883 107.105L69.0107 98.3052L71.5702 90.5719L74.2409 82.8385H87.2606H100.28L102.172 89.5052C103.952 95.7719 104.286 96.1719 108.07 96.5719C110.295 96.8385 112.187 96.4385 112.187 95.9052C112.187 95.2385 110.741 91.9052 108.849 88.4385L105.51 82.1719H109.962C114.19 82.1719 114.301 82.0385 113.077 79.5052C112.076 77.6385 110.407 76.8385 107.513 76.8385C103.73 76.8385 103.062 76.3052 101.059 71.5052L98.8336 66.1719H101.059C102.283 66.1719 103.285 65.5052 103.285 64.8385C103.285 64.0385 101.838 63.5052 100.058 63.5052C96.4967 63.5052 94.4937 60.0385 97.4983 59.1052C98.8336 58.7052 98.7223 58.4385 96.9419 58.3052C94.1599 58.1719 93.4922 56.1719 95.8291 55.1052C96.4967 54.7052 95.9403 54.3052 94.3824 54.3052C92.7132 54.1719 92.1569 53.7719 92.9358 53.1052C95.1614 51.3719 90.5989 46.1719 86.7042 46.1719C83.5883 46.1719 82.6981 47.2385 83.1432 50.4385C83.1432 51.1052 82.3643 51.5052 81.2515 51.5052C79.6936 51.5052 79.5823 51.7719 81.0289 52.8385C82.3643 53.9052 82.3643 54.1719 80.4725 54.1719C78.692 54.1719 78.5808 54.4385 79.9161 55.5052C81.3627 56.5719 81.3627 56.7052 79.9161 57.3719C74.9085 59.2385 74.9085 59.2385 76.8003 59.3719C80.0274 59.6385 77.8018 63.5052 74.4634 63.5052C71.7927 63.6385 71.6814 63.7719 73.5732 65.3719C75.4649 67.1052 75.4649 67.3719 73.3506 71.5052C72.2378 73.9052 69.0107 77.1052 66.34 78.5719L61.555 81.3719L65.116 81.9052L68.6769 82.3052L65.7836 87.9052C64.2257 90.9719 62.7791 93.6385 62.6678 93.9052C62.4453 94.1719 58.8843 92.3052 54.767 89.7719C47.3113 85.2385 47.2 85.1052 50.4271 84.1719C57.6602 82.3052 63.4468 79.1052 67.119 74.8385C78.1356 62.4385 65.4498 48.1719 41.8586 46.4385L32.066 45.7719V71.3719V96.8385H35.4044C38.6315 96.8385 38.7427 96.5719 38.7427 90.7052C38.7427 85.9052 39.0766 84.8385 40.1894 85.7719C43.8616 89.2385 94.605 119.505 96.7193 119.505C101.17 119.505 112.187 111.239 118.753 102.705C126.542 92.8385 129.435 84.3052 129.213 71.7719C128.99 55.9052 118.641 38.1719 104.286 29.5052C90.8215 21.2385 71.6814 18.7052 55.7685 22.8385ZM50.4271 52.1719C71.0138 58.7052 69.5671 75.1052 47.8676 80.7052C38.0751 83.1052 38.7427 84.1719 38.7427 66.1719C38.7427 47.7719 38.1863 48.4385 50.4271 52.1719ZM89.9313 52.1719C91.1553 53.9052 90.7102 54.1719 87.3718 54.1719C84.256 54.1719 83.4771 53.7719 83.9222 52.1719C84.3673 51.1052 85.4801 50.1719 86.5929 50.1719C87.7057 50.1719 89.1523 51.1052 89.9313 52.1719ZM91.6005 56.8385C92.0456 57.6385 90.2651 58.1719 87.1493 58.1719C84.0335 58.1719 82.253 57.6385 82.6981 56.8385C83.0319 56.0385 85.035 55.5052 87.1493 55.5052C89.2636 55.5052 91.2666 56.0385 91.6005 56.8385ZM93.2696 61.5052C93.2696 63.1052 91.823 63.5052 87.1493 63.5052C82.4755 63.5052 81.0289 63.1052 81.0289 61.5052C81.0289 59.9052 82.4755 59.5052 87.1493 59.5052C91.823 59.5052 93.2696 59.9052 93.2696 61.5052ZM95.9403 69.3719C96.2742 71.1052 96.9419 73.5052 97.2757 74.7052C97.8321 76.5719 96.608 76.8385 87.2606 76.8385C81.3627 76.8385 76.5777 76.5719 76.5777 76.1719C76.5777 75.7719 77.3567 73.3719 78.1356 70.8385L79.8048 66.1719H87.4831C94.7163 66.1719 95.2727 66.4385 95.9403 69.3719Z" fill="white"/>
</svg>
